<svg stroke="currentColor" fill="currentColor" stroke-width="0" viewBox="0 0 1024 1024" xmlns="http://www.w3.org/2000/svg">
  <!-- github.com/shashikaxp/portfolio -->
  <path d="M512 76a447 447 0 0 0-148 870c23 6 20-11 20-22v-78c-136 16-141-74-151-89-18-31-61-39-48-54 30-16 62 4 98 58 27 39 78 32 104 26 6-24 18-45 35-61-141-25-199-111-199-213 0-49 16-95 48-132-20-60 2-112 5-120 58-5 119 42 123 46a435 435 0 0 1 226 0c12-9 68-49 122-44 3 8 25 58 5 118 33 37 49 83 49 132 0 103-59 189-200 213a128 128 0 0 1 38 91v113c1 9 0 18 15 18A448 448 0 0 0 512 76z" stroke="none"/>
</svg>
