<svg id="a" xmlns="http://www.w3.org/2000/svg" viewBox="0 0 99.48 99.48">
  <defs>
    <style>
      .d{fill:#2f2e41}.e{fill:#fff}.g{fill:#e6e6e6}.h{fill:#ffb8b8}.i{fill:#63ccff}
    </style>
  </defs>
  <path fill="#f2f2f2" d="M0 0h99.48v99.48H0z"/>
  <g id="b">
    <path class="d" d="M92.46 68.31H38.62c-1 0-1.81-.81-1.81-1.81a243.07 243.07 0 0 1 57.44 0c0 1-.81 1.81-1.81 1.81Z"/>
    <path d="m94.26 66.61-57.44-.11 6.66-11.2.03-.05V30.56a2.28 2.28 0 0 1 2.28-2.28h39.18a2.28 2.28 0 0 1 2.28 2.28v24.86l7.01 11.19Z" fill="#3f3d56"/>
    <path class="e" d="M45.73 29.87a.74.74 0 0 0-.74.74v22.51c0 .41.33.74.74.74h39.61c.41 0 .74-.33.74-.74V30.61a.74.74 0 0 0-.74-.74H45.73Z"/>
    <path class="d" d="M45.9 56.84a.31.31 0 0 0-.29.19l-2.05 4.46c-.07.16 0 .35.16.42a.3.3 0 0 0 .13.03h43.14c.18 0 .32-.14.32-.32 0-.05-.01-.1-.03-.14l-2.23-4.46a.3.3 0 0 0-.28-.18H45.9Z"/>
    <circle class="e" cx="65.38" cy="29.02" r=".48"/>
    <path class="d" d="M61.14 62.79c-.14 0-.27.1-.31.24l-.51 1.91c-.05.17.05.34.22.39l.08.01h9.79c.18 0 .32-.14.32-.32 0-.04 0-.07-.02-.1l-.66-1.91a.31.31 0 0 0-.3-.21h-8.61ZM87.25 54.88v.42H43.47l.04-.05v-.37h43.74z"/>
    <circle class="i" cx="86.03" cy="29.92" r="7.43"/>
    <path class="e" d="M89.11 33.16h-6.16a.42.42 0 0 1-.42-.42v-3.72c0-.23.19-.42.42-.42h6.16c.23 0 .42.19.42.42v3.72c0 .23-.19.42-.42.42Zm-6.16-4.14v3.72h6.16v-3.72h-6.16Z"/>
    <path class="e" d="M87.94 29.02h-3.82v-1.7c0-1.23.8-2.12 1.91-2.12s1.91.89 1.91 2.12v1.7Zm-3.4-.42h2.97v-1.27c0-1-.61-1.7-1.49-1.7s-1.49.7-1.49 1.7v1.27Z"/>
    <circle class="e" cx="86.03" cy="30.77" r=".42"/>
    <path class="g" d="M80.84 50.8H50.23c-.31 0-.57-.47-.57-1.05V35.64c0-.58.25-1.05.57-1.05h30.61c.31 0 .57.47.57 1.05v14.11c0 .58-.25 1.05-.57 1.05ZM50.23 35c-.19 0-.34.28-.34.63v14.11c0 .35.15.63.34.63h30.61c.19 0 .34-.28.34-.63V35.63c0-.35-.15-.63-.34-.63H50.23Z"/>
    <circle class="g" cx="54.99" cy="41.58" r="2.31"/>
    <path class="g" d="M60.2 37.81c-.14 0-.26.62-.26 1.39 0 .77.12 1.39.26 1.39h12.38c.14 0 .26-.62.26-1.39s-.12-1.39-.26-1.39H60.2ZM60.2 41.26c-.14 0-.26.62-.26 1.39 0 .77.12 1.39.26 1.39h12.38c.14 0 .26-.62.26-1.39s-.12-1.39-.26-1.39H60.2ZM63.69 45.48c-.15 0-.27.44-.27.98s.12.98.27.98h5.39c.15 0 .27-.44.27-.98s-.12-.98-.27-.98h-5.39Z"/>
  </g>
  <g id="c">
    <path class="g" d="M50.84 92.74c0 .98-10.48 1.78-23.4 1.78s-23.4-.8-23.4-1.78c0-.87 8.14-1.58 18.92-1.74 1.45-.02 2.95-.04 4.48-.04h2.4c11.79.09 21 .85 21 1.77Z"/>
    <path class="d" d="m36.02 31.07-3.56-.56a27.27 27.27 0 0 1-.52-3.5 3.52 3.52 0 0 0 1.17-2.63c0-.14 0-.26-.03-.39-2.76.18-4.96-.27-6.52-1.41a3.54 3.54 0 0 0 1.76 5.08c0 .76-.1 1.5-.28 2.21l-.38.16c-.23-.01-.45-.02-.68-.01-1.54-.58-3.17-.38-4.87.39.26-.71.63-1.39 1.07-2 .41-.58.42-1.18.02-1.79-.48-.97-.3-1.84.75-2.56a2.3 2.3 0 0 1-.07-.58c0-.75.35-1.51.91-2.26a3.5 3.5 0 0 1 3.11-2.51l2.94-.21a3.5 3.5 0 0 1 2.92 1.23c1.58 1.87 3.16 4.12 2.06 6.23-.43.83-.5 1.65.21 2.43.59.65.03 1.77-.02 2.69Z"/>
    <path class="h" d="M46.15 40.11c0 .41-.16.81-.48 1.11l-2.6 2.44L34.92 48l.83-3.85c2.3-.5 4.49-1.25 6.55-2.36l.91-2.25a1.53 1.53 0 0 1 2.94.57Z"/>
    <path class="d" d="m42.89 62.5-8.93-8.33.85-5.68-.27 1.26c-3.6 2.46-6.25.59-8.32-2.76h-.05c-.59 0-1.14-.38-1.35-.97a.85.85 0 0 1-.06-.31c-6.87 7.32-4.43 24.59-1.89 41.96l-.06-.03a3.34 3.34 0 0 0 .16 3.35c1.45-.02 2.95-.04 4.48-.04h2.4c0-.33-.11-.65-.3-.94-1.16-1.26-2.38-1.17-3.12-2.66-.13.12-.26.22-.38.31l1.77-18.74c.23-.13.47-.25.7-.36a1.54 1.54 0 0 1-.23-.29l12.4-.1c1.14 0 2.2-.61 2.79-1.6.8-1.33.56-3.03-.58-4.09ZM28.2 64.85l.41-4.29.28-.31 4.14 3.18-4.83 1.41Z"/>
    <path class="d" d="M29.84 90.97a1.71 1.71 0 0 1-2.66 1.46l-3.23-.44a3.25 3.25 0 0 1-.99-1c1.45-.02 2.95-.04 4.48-.04h2.4Z"/>
    <path class="h" d="M32.46 30.51c.09.45.2.9.33 1.34l-4.24-1.77-.5-.21h-.02c.18-.71.28-1.45.28-2.21a3.53 3.53 0 0 1-1.76-5.08c1.56 1.14 3.77 1.58 6.52 1.41l.03.39A3.5 3.5 0 0 1 31.93 27a27 27 0 0 0 .52 3.5Z"/>
    <path class="i" d="m36.11 42.45-.37 1.7-.83 3.85-.04.02-.07.47-.27 1.26c-3.6 2.46-6.25.59-8.32-2.76.14 0 .28-.03.41-.07.03 0 .05-.02.07-.03a1.43 1.43 0 0 0 .84-1.7c0-.06-.03-.11-.05-.16l-1.09-2.69-.97-.58c-.2-1.49-.55-3.08-1.01-4.73a6.13 6.13 0 0 1-.21-1.27c-.77.21-1.58.54-2.46.83l-.03-.56-.27-4.75-.03-.54c.23-.12.45-.23.68-.33 1.7-.77 3.33-.97 4.87-.39l.38.16c.09-.06.19-.11.29-.15l.38-.16h.02l.5.21 4.24 1.77h.01c4.03 3.29 4.82 6.85 3.31 10.6Z"/>
    <path class="i" d="m34.91 48-.11.49.08-.47.03-.02z"/>
    <path class="h" d="m26.69 46.89-.07.03c-.14.04-.27.07-.41.07h-.05c-.59 0-1.14-.38-1.35-.97a.85.85 0 0 1-.06-.31v-.06l-.11-1.88-9.96-3.29a2.31 2.31 0 0 1-.58-4.13l7.38-5.07.27 4.75-3.17 1.66 6.87 4.07.97.58 1.09 2.69.05.16c.19.69-.16 1.42-.84 1.7Z"/>
  </g>
</svg>
